<?xml version="1.0" encoding="UTF-8" standalone="no"?>
<!-- Created with Inkscape (http://www.inkscape.org/) -->

<svg
   width="210mm"
   height="297mm"
   viewBox="0 0 210 297"
   version="1.1"
   id="svg5"
   inkscape:version="1.1.2 (b8e25be833, 2022-02-05)"
   sodipodi:docname="codewars.svg"
   xmlns:inkscape="http://www.inkscape.org/namespaces/inkscape"
   xmlns:sodipodi="http://sodipodi.sourceforge.net/DTD/sodipodi-0.dtd"
   xmlns="http://www.w3.org/2000/svg"
   xmlns:svg="http://www.w3.org/2000/svg">
  <sodipodi:namedview
     id="namedview7"
     pagecolor="#ffffff"
     bordercolor="#666666"
     borderopacity="1.0"
     inkscape:pageshadow="2"
     inkscape:pageopacity="0.0"
     inkscape:pagecheckerboard="0"
     inkscape:document-units="mm"
     showgrid="false"
     inkscape:zoom="11.844781"
     inkscape:cx="931.50729"
     inkscape:cy="523.94383"
     inkscape:window-width="1920"
     inkscape:window-height="1017"
     inkscape:window-x="-8"
     inkscape:window-y="-8"
     inkscape:window-maximized="1"
     inkscape:current-layer="layer1" />
  <defs
     id="defs2" />
  <g
     inkscape:label="Layer 1"
     inkscape:groupmode="layer"
     id="layer1">
    <path
       d="m 236.11918,135.14741 -0.0212,-0.0106 c -0.0476,-0.0265 -0.0847,-0.0661 -0.11112,-0.11642 -0.037,-0.0688 -0.0529,-0.13229 -0.0529,-0.19844 l 0.005,-0.0344 c 0,-0.0529 0.0132,-0.10054 0.037,-0.14552 l 0.0212,-0.0397 c 0.0106,-0.0212 0.0265,-0.0397 0.0397,-0.0582 0.0159,-0.0185 0.0185,-0.0423 0.0132,-0.0635 l -0.0132,-0.0423 c -0.0159,-0.0529 -0.0265,-0.10583 -0.0265,-0.15875 l -0.008,-0.0318 c 0,-0.0582 0.0159,-0.11642 0.0529,-0.15875 l 0.0265,-0.0344 c 0.0185,-0.0265 0.0476,-0.0423 0.0794,-0.0529 0.0265,-0.008 0.045,-0.0344 0.0476,-0.0661 l 0.005,-0.09 c 0,-0.0714 0.0344,-0.13758 0.0873,-0.18521 l 0.0635,-0.0476 c 0.0132,-0.0132 0.0265,-0.0265 0.037,-0.0476 0.0132,-0.0159 0.0159,-0.037 0.0132,-0.0529 -0.005,-0.0265 0,-0.0344 0.0132,-0.037 0.0423,0.0159 0.0688,0.0106 0.0873,-0.0106 l 0.0344,-0.045 0.0952,-0.10583 c 0.0265,-0.0265 0.037,-0.0741 0.0212,-0.11113 l -0.0317,-0.0688 c -0.005,-0.0159 0,-0.0344 0.0132,-0.0397 0.0344,0 0.0582,0.0132 0.0688,0.0344 l 0.0106,0.0185 c 0.0159,0.0317 0.0529,0.0476 0.0794,0.0344 0.0582,-0.0212 0.10584,-0.0265 0.15082,-0.0265 h 0.0847 c 0.0582,0 0.10584,-0.0397 0.11642,-0.10054 0.0106,-0.0741 0.037,-0.13229 0.0741,-0.17198 0.0397,-0.045 0.0847,-0.0794 0.13759,-0.10584 0.0688,-0.037 0.11112,-0.0899 0.12435,-0.15875 0.0185,-0.0847 0.0635,-0.14552 0.12435,-0.1852 l 0.20109,-0.11377 0.0582,-0.0344 c 0.0344,-0.0212 0.0661,-0.0476 0.0926,-0.0794 l 0.0529,-0.0635 c 0.0265,-0.0265 0.0529,-0.045 0.0847,-0.0529 0.0265,-0.008 0.0635,-0.0132 0.0953,-0.0106 l 0.10584,0.008 c 0.0529,0 0.0952,0.0132 0.13758,0.0317 l 0.0265,0.0132 c 0.0265,0.0106 0.0529,0.005 0.0661,-0.0132 l 0.0238,-0.0132 0.11377,-0.11906 c 0.0265,-0.0265 0.0582,-0.037 0.0926,-0.0317 0.0344,0.005 0.0688,0.0185 0.10054,0.0344 0.0476,0.0265 0.0873,0.037 0.1323,0.037 h 0.0265 c 0.0582,0 0.11642,0.008 0.17463,0.0212 l 0.0397,0.0106 c 0.0397,0.0106 0.0794,-0.005 0.10583,-0.037 0.008,-0.0132 0.0265,-0.0159 0.037,-0.005 0.008,0.005 0.0106,0.0106 0.0132,0.0185 0.005,0.0529 0.037,0.0926 0.0794,0.10583 l 0.0423,0.0132 c 0.045,0.0132 0.0847,0.0423 0.11112,0.0794 0.0265,0.0397 0.0582,0.0794 0.0953,0.10584 l 0.0265,0.0265 c 0.0265,0.0264 0.0635,0.037 0.10054,0.0344 h 0.15611 c 0.0635,0 0.12435,0.0106 0.18521,0.037 0.0582,0.0265 0.11906,0.0318 0.17462,0.0106 0.0582,-0.0185 0.11906,-0.0265 0.17992,-0.0185 l 0.11377,0.0185 c 0.0529,0.005 0.10583,0.0317 0.13758,0.0714 l 0.0132,0.0132 c 0.0265,0.0265 0.0529,0.0609 0.0794,0.0979 0.0159,0.0344 0.0529,0.0529 0.0899,0.0529 h 0.16405 c 0.0397,0 0.0794,0.008 0.11112,0.0265 0.0344,0.0265 0.0635,0.0529 0.09,0.0794 l 0.0265,0.0344 c 0.0317,0.037 0.0476,0.0873 0.045,0.14023 0,0.0423 0.0318,0.0794 0.0741,0.0794 l 0.0529,0.005 c 0.037,0 0.0688,0.0265 0.0873,0.0609 l 0.0265,0.0529 0.0688,0.15346 c 0.0106,0.0265 0.0132,0.0529 0.0106,0.0741 0,0.0265 0.008,0.0476 0.0265,0.0582 l 0.0265,0.0185 c 0.0344,0.0265 0.0529,0.0661 0.0476,0.11113 l -0.0185,0.12435 -0.005,0.0529 c -0.005,0.0265 0.008,0.0608 0.0318,0.0794 0.0397,0.0265 0.0582,0.0609 0.0609,0.10055 v 0.0529 c 0,0.0265 -0.005,0.0582 -0.0265,0.0794 -0.0159,0.0212 -0.0265,0.0476 -0.0265,0.0794 l 0.008,0.0609 c 0,0.0423 0.0265,0.0794 0.0529,0.10583 0.0371,0.0265 0.0582,0.0688 0.0635,0.11112 0.0106,0.0661 0.0132,0.11907 0.0132,0.17198 v 0.0609 c 0,0.0212 0,0.0423 0.008,0.0635 0.005,0.0185 0.0185,0.037 0.0344,0.0476 l 0.0529,0.0397 c 0.0529,0.0344 0.0899,0.0794 0.11112,0.14023 0.0265,0.0582 0.0344,0.11906 0.0344,0.17992 v 0.0212 c 0,0.0476 -0.005,0.0979 -0.0212,0.14288 -0.0132,0.0476 -0.0106,0.0926 0.008,0.13229 0.0212,0.037 0.0344,0.0794 0.0397,0.12435 0.0106,0.0529 0.005,0.10584 -0.0132,0.14817 l -0.005,0.0185 c -0.0132,0.0318 -0.0344,0.0609 -0.0609,0.0847 -0.0265,0.0265 -0.0529,0.0423 -0.0688,0.0608 -0.0159,0.0159 -0.0265,0.0423 -0.0185,0.0661 l 0.008,0.037 c 0.0132,0.0529 0.0132,0.10583 0,0.15346 v 0.0212 c -0.0106,0.0397 -0.0265,0.0741 -0.0423,0.10583 -0.0185,0.0344 -0.045,0.0608 -0.0794,0.0794 l -0.0397,0.0265 c -0.0185,0.0106 -0.0317,0.0344 -0.0317,0.0582 0,0.0265 -0.0106,0.0529 -0.0265,0.0688 l -0.0397,0.0529 c -0.0265,0.0344 -0.0609,0.0635 -0.0979,0.0794 -0.037,0.0265 -0.0688,0.0529 -0.0926,0.0794 -0.0265,0.0318 -0.0476,0.0688 -0.0582,0.10583 -0.0106,0.0476 -0.0476,0.0741 -0.0873,0.0741 h -0.14288 c -0.037,0 -0.0714,0.0265 -0.0873,0.0582 -0.0185,0.0423 -0.037,0.0714 -0.0608,0.0979 -0.0265,0.0265 -0.0423,0.0582 -0.0529,0.0952 -0.005,0.0317 -0.0318,0.0529 -0.0582,0.0423 -0.0344,-0.0159 -0.0688,0 -0.0847,0.0265 -0.0317,0.0529 -0.0635,0.0926 -0.0979,0.127 l -0.0185,0.0159 c -0.0344,0.0265 -0.0794,0.0476 -0.11906,0.0476 -0.0476,0 -0.0714,0.0212 -0.0794,0.0529 -0.008,0.0265 -0.0132,0.0609 -0.0159,0.09 -0.005,0.0317 -0.0159,0.0609 -0.0265,0.0873 l -0.0132,0.0159 c -0.0265,0.0397 -0.0476,0.0794 -0.0741,0.11377 l -0.0106,0.0159 c -0.0344,0.045 -0.0794,0.0794 -0.13229,0.0926 -0.0635,0.0212 -0.11906,0.0265 -0.17462,0.0265 h -0.037 c -0.0265,0 -0.0529,0.0159 -0.0714,0.0423 l -0.0159,0.0265 -0.0159,0.0318 -0.0344,0.0582 c -0.0265,0.0476 -0.0661,0.0794 -0.11906,0.0952 -0.0529,0.0132 -0.11377,0.0185 -0.16933,0.0159 l -0.0423,-0.005 c -0.037,0 -0.0714,-0.0106 -0.10583,-0.0265 -0.0265,-0.0106 -0.0635,0 -0.0794,0.0265 -0.0265,0.037 -0.0582,0.0582 -0.0926,0.0688 l -0.0794,0.0265 c -0.0529,0.0132 -0.11113,0.0132 -0.16669,0 l -0.0423,-0.0132 c -0.0265,0 -0.0529,-0.0132 -0.0741,-0.0265 -0.0265,-0.0132 -0.0529,-0.0185 -0.0794,-0.0159 l -0.0344,0.005 c -0.0529,0.005 -0.10054,0 -0.14817,-0.0132 l -0.0714,-0.0159 c -0.0317,-0.0106 -0.0609,-0.0317 -0.0794,-0.0609 -0.0132,-0.0265 -0.0423,-0.0476 -0.0794,-0.0529 h -0.0847 c -0.0529,-0.008 -0.10054,-0.0265 -0.13229,-0.0661 l -0.10584,-0.10054 -0.037,-0.0318 -0.0582,-0.0423 -0.0344,-0.0265 c -0.0397,-0.0265 -0.0873,-0.0476 -0.13759,-0.0529 l -0.15875,-0.0265 c -0.0159,0 -0.0264,-0.005 -0.0423,-0.008 l -0.0608,-0.0132 c -0.0265,-0.005 -0.0529,-0.0265 -0.0714,-0.0529 -0.0159,-0.0265 -0.045,-0.037 -0.0714,-0.0265 -0.0529,0.0212 -0.0952,0.0265 -0.13758,0.0344 h -0.037 c -0.0688,0.005 -0.13229,-0.005 -0.19579,-0.0344 -0.0635,-0.0265 -0.10584,-0.0661 -0.14553,-0.11641 -0.0317,-0.045 -0.0794,-0.0794 -0.13758,-0.09 l -0.0741,-0.0159 c -0.0529,-0.0106 -0.10584,-0.0318 -0.15346,-0.0635 -0.0529,-0.037 -0.0794,-0.0714 -0.10054,-0.11377 -0.0212,-0.0397 -0.0344,-0.0847 -0.037,-0.13229 v -0.0212 c -0.005,-0.0529 -0.0423,-0.10054 -0.0926,-0.11377 -0.0609,-0.0185 -0.10583,-0.045 -0.14552,-0.0794 -0.037,-0.0344 -0.0582,-0.0847 -0.0582,-0.13759 l 0.005,-0.11641 c 0,-0.045 -0.0132,-0.0847 -0.045,-0.11377 -0.0317,-0.0318 -0.0529,-0.0714 -0.0529,-0.11377 l -0.008,-0.0952 c -0.005,-0.0688 -0.0185,-0.13759 -0.0344,-0.20638 -0.0159,-0.0609 0.008,-0.12171 0.0582,-0.15081 l 0.0185,-0.0132 c 0.0265,-0.0185 0.037,-0.0529 0.0212,-0.0847 l -0.0212,-0.0265 c -0.0265,-0.0265 -0.0529,-0.045 -0.0794,-0.0529 -0.0212,-0.005 -0.0265,-0.0265 -0.0265,-0.0397 l 0.0265,-0.0317 c 0.0159,-0.0185 0.0132,-0.0476 0,-0.0635 -0.0212,-0.0212 -0.0318,-0.0476 -0.0344,-0.0741 l -0.005,-0.18521 c 0,-0.037 0.005,-0.0741 0.0159,-0.11113 0.0106,-0.0318 0,-0.0688 -0.0317,-0.0847 z m 2.61937,-0.34925 c 0.0185,-0.0185 0.0159,-0.0529 0,-0.0661 -0.0265,-0.0212 -0.045,-0.045 -0.0609,-0.0714 l -0.0265,-0.0423 c -0.0185,-0.0344 -0.0423,-0.0635 -0.0688,-0.09 l -0.005,-0.005 c -0.0265,-0.0212 -0.045,-0.0476 -0.0609,-0.0794 -0.0132,-0.0265 -0.0132,-0.0529 0,-0.0794 l 0.0159,-0.0265 c 0.0159,-0.0265 0.0265,-0.0635 0.0265,-0.0953 v -0.0106 c 0,-0.0265 -0.0106,-0.0529 -0.0265,-0.0794 -0.0106,-0.0212 -0.0212,-0.0476 -0.0265,-0.0741 v -0.0159 c -0.008,-0.0318 0,-0.0662 0.0212,-0.0926 0.0212,-0.0344 0.037,-0.0661 0.045,-0.10584 v -0.005 c 0.0106,-0.0265 0.005,-0.0609 -0.0106,-0.0873 -0.0159,-0.0265 -0.0212,-0.0529 -0.0106,-0.0847 l 0.0185,-0.0529 c 0.0159,-0.0476 0.0397,-0.09 0.0714,-0.127 l 0.037,-0.0397 0.0265,-0.0317 0.0159,-0.0159 c 0.0159,-0.0159 0.0185,-0.0423 0.005,-0.0635 -0.0132,-0.0265 -0.0212,-0.0529 -0.0159,-0.0794 l 0.005,-0.037 c 0.008,-0.0529 0.0265,-0.10584 0.0608,-0.14817 l 0.0106,-0.0106 c 0.0397,-0.0529 0.09,-0.0873 0.14816,-0.10584 l 0.0714,-0.0264 c 0.0318,-0.0106 0.0529,-0.045 0.0529,-0.0794 0,-0.0423 0.0132,-0.0794 0.037,-0.11377 l 0.0132,-0.0132 c 0.0265,-0.045 0.0582,-0.09 0.0794,-0.13758 l 0.0185,-0.0344 c 0.005,-0.008 0.008,-0.0185 0.008,-0.0265 0,-0.045 -0.0264,-0.0847 -0.0688,-0.0873 l -0.11642,-0.008 c -0.0661,-0.005 -0.13229,0 -0.19579,0 l -0.22489,0.0265 c -0.0344,0 -0.0609,0.0265 -0.0635,0.0635 0,0.037 -0.0265,0.0688 -0.0582,0.0794 l -0.0952,0.0265 -0.0265,0.008 -0.0794,0.0265 c -0.0582,0.0185 -0.10584,0.0608 -0.1323,0.11906 l -0.0212,0.0344 c -0.0265,0.0582 -0.0714,0.10583 -0.127,0.14023 -0.0529,0.0344 -0.0794,0.09 -0.0847,0.15346 v 0.0264 c -0.005,0.0529 -0.0212,0.10584 -0.0529,0.14288 l -0.0132,0.0212 c -0.0212,0.0265 -0.0264,0.0609 -0.0132,0.09 0.0132,0.0317 0.0212,0.0661 0.0185,0.10055 v 0.14022 c 0,0.037 -0.0265,0.0688 -0.0529,0.0794 -0.037,0.0132 -0.0609,0.0423 -0.0714,0.0794 l -0.0132,0.0529 c -0.0106,0.0529 0.008,0.10583 0.0529,0.13758 0.0423,0.0318 0.0688,0.0794 0.0794,0.13759 v 0.0476 c 0.008,0.0529 0.037,0.10584 0.0847,0.13229 0.0476,0.0317 0.0847,0.0794 0.10583,0.1323 l 0.0132,0.0423 c 0.0212,0.0582 0.0688,0.0926 0.12171,0.0979 h 0.0159 c 0.0476,0 0.09,0.0265 0.11641,0.0688 0.0265,0.0423 0.0688,0.0714 0.11642,0.0794 l 0.0741,0.0212 c 0.045,0.0132 0.0873,0.037 0.12171,0.0714 l 0.005,0.005 c 0.0265,0.0212 0.0688,0.0185 0.0926,-0.0106 l 0.0185,-0.0212 z m 0.30163,-0.24341 c 0.0265,0.0159 0.0529,0.008 0.0635,-0.0159 l 0.008,-0.0132 c 0.0185,-0.037 0.0423,-0.0741 0.0688,-0.10583 l 0.0529,-0.0794 c 0.008,0 0.0106,-0.005 0.0132,-0.0106 l 0.0635,-0.0847 c 0.0265,-0.0265 0.0582,-0.045 0.0952,-0.045 0.0344,0 0.0635,-0.0185 0.0794,-0.0529 0.0106,-0.037 0.0265,-0.0714 0.0582,-0.10054 l 0.0132,-0.0159 c 0.0265,-0.0265 0.0529,-0.0397 0.0794,-0.0529 0.0344,-0.005 0.0661,-0.0106 0.0979,-0.0106 h 0.0794 c 0.0318,0 0.0582,-0.0132 0.0741,-0.0397 0.0159,-0.0265 0.0397,-0.045 0.0661,-0.0582 l 0.0265,-0.0106 c 0.0423,-0.0185 0.09,-0.0317 0.13758,-0.037 l 0.0529,-0.005 c 0.0317,0 0.0661,0 0.0979,0.0185 0.0264,0.0185 0.0608,0.0159 0.0873,-0.005 l 0.0185,-0.0106 c 0.0397,-0.0265 0.0847,-0.0476 0.13229,-0.0529 h 0.005 c 0.0529,-0.0106 0.10054,-0.0106 0.15346,-0.008 h 0.0265 c 0.0529,0.008 0.0979,0.0265 0.13229,0.0661 l 0.008,0.0106 c 0.0265,0.0265 0.0688,0.0476 0.10583,0.0476 h 0.045 c 0.0132,0 0.0265,-0.005 0.0344,-0.0185 0.008,-0.008 0.0212,-0.0159 0.0344,-0.0159 h 0.0265 c 0.037,0 0.0714,0.0106 0.10583,0.0212 l 0.045,0.0185 c 0.0423,0.0132 0.0873,0.0264 0.13229,0.0317 h 0.0318 c 0.0212,0 0.0344,-0.0132 0.0344,-0.0317 0,-0.0265 -0.005,-0.0529 -0.0185,-0.0741 l -0.0185,-0.0423 c -0.0212,-0.0344 -0.037,-0.0714 -0.0529,-0.10583 l -0.005,-0.0132 c -0.0132,-0.0265 -0.0132,-0.0529 0,-0.0794 v -0.0132 c 0.005,-0.0212 -0.005,-0.045 -0.0265,-0.0529 h -0.0212 c -0.0423,-0.0132 -0.0794,-0.037 -0.10583,-0.0714 l -0.0265,-0.0265 c -0.0265,-0.0265 -0.0423,-0.0661 -0.0529,-0.10583 -0.0132,-0.0344 -0.0423,-0.0609 -0.0794,-0.0609 h -0.11112 c -0.0397,-0.005 -0.0741,-0.0265 -0.0979,-0.0582 l -0.0106,-0.0132 c -0.0185,-0.0265 -0.0344,-0.0582 -0.045,-0.09 -0.0132,-0.0265 -0.0423,-0.0423 -0.0688,-0.0344 l -0.0317,0.0106 c -0.0529,0.0185 -0.10584,0.0265 -0.15875,0.0212 l -0.0423,-0.005 c -0.045,0 -0.0873,-0.0185 -0.12171,-0.045 l -0.0265,-0.0185 c -0.0212,-0.0159 -0.0423,-0.0265 -0.0661,-0.037 -0.0265,-0.0106 -0.0476,-0.005 -0.0635,0.0132 l -0.0132,0.0159 c -0.0265,0.0265 -0.0635,0.0476 -0.10054,0.0529 l -0.14288,0.008 c -0.0264,0 -0.0529,0.0132 -0.0714,0.0317 -0.0212,0.0185 -0.045,0.0318 -0.0714,0.037 h -0.005 c -0.0265,0 -0.0529,0.0185 -0.0794,0.037 v 0.005 c -0.0264,0.0265 -0.0608,0.0397 -0.0952,0.0397 l -0.0106,0.005 c -0.0317,0 -0.0635,0 -0.0952,0.008 h -0.0317 c -0.045,0.008 -0.0794,0.045 -0.09,0.0926 l -0.0106,0.0609 c -0.008,0.0423 -0.0265,0.0794 -0.0529,0.11377 -0.0265,0.0317 -0.0582,0.0529 -0.0979,0.0529 h -0.0397 -0.005 c -0.0265,0.005 -0.0529,0.0344 -0.0476,0.0661 0.005,0.045 0,0.0847 -0.008,0.12435 l -0.0106,0.045 c -0.0106,0.0397 -0.037,0.0714 -0.0714,0.0847 l -0.0159,0.008 h -0.005 c -0.0159,0.0106 -0.0265,0.0344 -0.0132,0.0529 0.0159,0.0264 0.0212,0.0529 0.0185,0.0794 l -0.008,0.0847 c 0,0.0317 -0.0132,0.0608 -0.0265,0.0873 -0.0159,0.0265 -0.0159,0.0529 -0.005,0.0794 l 0.0265,0.0582 c 0.0132,0.0265 0.0159,0.0529 0.008,0.0847 -0.008,0.0265 -0.0132,0.0529 -0.0106,0.0794 0,0.0264 0.0159,0.0529 0.037,0.0635 l 0.005,0.005 z m 2.09021,1.91293 c 0.0264,0.0265 0.0661,0.037 0.0979,0.0159 l 0.0529,-0.0344 c 0.0265,-0.0185 0.0476,-0.045 0.0582,-0.0794 v -0.005 l 0.0265,-0.0794 0.0159,-0.0265 0.0106,-0.0265 0.0106,-0.0185 c 0.0106,-0.0212 0.0265,-0.037 0.0529,-0.045 l 0.0106,-0.005 c 0.0212,-0.005 0.0344,-0.0265 0.0344,-0.0476 0,-0.0265 0.0132,-0.0476 0.0265,-0.0661 l 0.0212,-0.0185 0.0529,-0.0688 v -0.005 c 0.0159,-0.0212 0.0265,-0.045 0.0318,-0.0714 0.005,-0.0265 0,-0.0529 -0.0106,-0.0794 l -0.005,-0.0106 c -0.0106,-0.0265 -0.0159,-0.045 -0.0185,-0.0688 l -0.008,-0.0741 -0.008,-0.0794 c 0,-0.0265 0.0106,-0.0529 0.0265,-0.0794 0.0185,-0.0212 0.0317,-0.0476 0.0423,-0.0741 v -0.0106 l 0.005,-0.005 c 0.005,-0.0265 -0.008,-0.0529 -0.0318,-0.0529 -0.0264,-0.0132 -0.0529,-0.0344 -0.0608,-0.0661 l -0.008,-0.0159 c -0.0132,-0.0476 -0.0212,-0.0952 -0.0212,-0.14287 l 0.005,-0.1323 v -0.008 c 0,-0.045 -0.037,-0.0794 -0.0794,-0.0794 h -0.005 c -0.0529,0 -0.0952,-0.0159 -0.13229,-0.0529 l -0.0212,-0.0265 -0.0529,-0.0609 -0.0688,-0.0794 c -0.0265,-0.037 -0.0529,-0.0688 -0.0873,-0.10054 -0.0265,-0.0265 -0.0661,-0.0529 -0.10583,-0.0582 l -0.0529,-0.008 c -0.0264,-0.005 -0.0608,-0.0185 -0.0899,-0.037 -0.0212,-0.0159 -0.0529,-0.0106 -0.0741,0.0106 l -0.0344,0.037 -0.0159,0.0106 c -0.0185,0.005 -0.037,-0.005 -0.045,-0.0265 -0.0106,-0.0318 -0.0106,-0.0688 0.005,-0.10054 v -0.0159 c 0,-0.0185 -0.0159,-0.0317 -0.0317,-0.0265 h -0.0423 c -0.0476,0 -0.0952,-0.005 -0.14023,-0.0264 l -0.0265,-0.0106 c -0.0265,-0.0132 -0.0582,-0.0212 -0.0873,-0.0212 -0.0265,0 -0.0529,0.005 -0.0794,0.0212 l -0.0106,0.008 c -0.0318,0.0212 -0.0688,0.0318 -0.10583,0.0344 h -0.0873 c -0.0397,0 -0.0794,0.0132 -0.10584,0.0344 -0.0344,0.0212 -0.0714,0.0344 -0.11112,0.0423 l -0.0714,0.0106 c -0.0318,0.008 -0.0661,0.0212 -0.0953,0.045 -0.0265,0.0265 -0.0635,0.0423 -0.0979,0.0529 l -0.0132,0.005 c -0.0423,0.0132 -0.0794,0.0397 -0.10584,0.0794 l -0.0317,0.0318 c -0.0185,0.0265 -0.0185,0.0582 0,0.0847 0.0159,0.0265 0.0476,0.0344 0.0794,0.0265 l 0.0397,-0.0159 c 0.0212,-0.008 0.045,0 0.0635,0.0106 0.0159,0.0132 0.0397,0.0212 0.0635,0.0185 l 0.0661,-0.008 c 0.037,0 0.0741,0 0.11113,0.0106 0.0397,0.0132 0.0741,0.0265 0.10583,0.0529 0.0318,0.0265 0.0661,0.037 0.10583,0.0423 0.0397,0.005 0.0794,0.0132 0.11642,0.0265 l 0.0265,0.005 c 0.0264,0.008 0.0476,0.0265 0.0635,0.0529 0.0132,0.0212 0.0265,0.0529 0.0265,0.0794 v 0.008 c 0,0.0317 0.0265,0.0529 0.0529,0.0529 h 0.0159 c 0.0423,0 0.0873,0.005 0.13229,0.0185 l 0.0185,0.008 c 0.0265,0.0106 0.0529,0.0264 0.0714,0.0529 0.0212,0.0265 0.0344,0.0529 0.0423,0.0794 l 0.008,0.037 c 0.008,0.0397 0.0106,0.0794 0.0106,0.12171 v 0.0132 c 0,0.0265 0.0185,0.0529 0.0476,0.0635 0.0265,0.005 0.0582,0.0159 0.0873,0.0318 l 0.0132,0.005 c 0.0344,0.0212 0.0688,0.0476 0.0953,0.0794 l 0.0132,0.0185 c 0.0344,0.0397 0.0529,0.09 0.0529,0.14023 v 0.0185 c 0,0.0397 -0.008,0.0794 -0.0212,0.11642 -0.0106,0.0318 0,0.0688 0.0344,0.0794 l 0.0185,0.0132 c 0.0397,0.0159 0.0741,0.045 0.10055,0.0794 0.0265,0.0397 0.037,0.0847 0.037,0.13229 v 0.0794 c -0.005,0.0265 -0.0132,0.0476 -0.0265,0.0661 -0.0132,0.0185 -0.0132,0.045 0,0.0635 l 0.0159,0.0265 z m -1.69334,-1.35466 h -0.005 c -0.0106,0 -0.0159,0.0132 -0.0132,0.0264 l 0.0106,0.0529 c 0.0106,0.0423 0.0159,0.0847 0.0212,0.127 0.005,0.0423 0.0265,0.0794 0.0582,0.10583 h 0.0106 c 0.0397,0.0318 0.0635,0.0794 0.0661,0.127 v 0.1323 c -0.005,0.0265 0,0.0529 0.0159,0.0741 l 0.0132,0.0132 c 0.0265,0.0318 0.037,0.0688 0.0397,0.10583 l 0.008,0.14552 c 0,0.0344 -0.0212,0.0635 -0.0529,0.0688 l -0.0265,0.005 c -0.0185,0 -0.0265,0.0212 -0.0265,0.0397 0,0.0212 0.008,0.045 0.0159,0.0661 v 0.005 c 0.008,0.0265 0.0106,0.0529 0.008,0.0794 l -0.0106,0.0714 c -0.0106,0.0529 -0.0265,0.10055 -0.0529,0.14817 l -0.0185,0.0317 c -0.0132,0.0265 -0.0317,0.0423 -0.0529,0.0529 -0.0265,0.0106 -0.045,0.0318 -0.0529,0.0582 l -0.0212,0.0952 c -0.0132,0.0529 -0.0371,0.10583 -0.0688,0.15875 h -0.005 c -0.0317,0.0423 -0.0714,0.0794 -0.11906,0.10583 l -0.0318,0.0212 -0.0794,0.0397 c -0.0265,0.0106 -0.0423,0.0344 -0.0476,0.0635 l -0.0132,0.0873 c -0.008,0.0529 -0.0265,0.0979 -0.0635,0.13229 l -0.0344,0.0397 -0.0397,0.0397 -0.0397,0.0423 c -0.0317,0.037 -0.0794,0.0529 -0.13229,0.045 l -0.0953,-0.0185 -0.0873,-0.0106 h -0.0238 c -0.0106,0.0106 -0.0132,0.0265 -0.005,0.0423 0.0185,0.0317 0.0476,0.0529 0.0794,0.0529 l 0.0582,0.0106 c 0.0265,0 0.0582,0.0132 0.0847,0.0265 0.0265,0.0185 0.0529,0.0318 0.0847,0.0397 h 0.005 c 0.0344,0.0132 0.0714,0.0159 0.10583,0.0132 l 0.0397,-0.005 c 0.045,-0.005 0.0873,0 0.12436,0.0159 l 0.0317,0.0106 c 0.0132,0.005 0.0344,0 0.0476,-0.0132 0.0159,-0.0159 0.0318,-0.0265 0.0529,-0.0344 l 0.0212,-0.005 c 0.0344,-0.0106 0.0688,-0.0159 0.10584,-0.0159 h 0.0212 c 0.0317,0 0.0609,0.005 0.0873,0.0212 l 0.0106,0.005 c 0.0185,0.008 0.0397,0 0.0529,-0.0159 0.008,-0.0185 0.0265,-0.037 0.045,-0.0529 l 0.0661,-0.045 0.0423,-0.0265 0.0212,-0.0132 c 0.0265,-0.0185 0.0635,-0.0265 0.0952,-0.0265 l 0.0953,-0.008 c 0.037,-0.005 0.0688,-0.0318 0.0794,-0.0688 0.0106,-0.0397 0.0265,-0.0794 0.0529,-0.11377 0.0265,-0.0344 0.0529,-0.0635 0.0794,-0.09 0.0344,-0.0264 0.0688,-0.0397 0.10583,-0.0423 h 0.0212 c 0.0423,-0.008 0.0741,-0.0476 0.0714,-0.09 v -0.005 -0.17198 c 0.005,-0.0264 0.0159,-0.0608 0.0317,-0.0873 l 0.0529,-0.0794 0.0212,-0.0265 c 0.0159,-0.0132 0.0265,-0.0317 0.045,-0.0529 l 0.0265,-0.0344 c 0.0159,-0.0265 0.0159,-0.0609 -0.005,-0.0847 -0.0265,-0.0265 -0.0397,-0.0635 -0.045,-0.10054 v -0.0106 c -0.005,-0.0423 -0.005,-0.0873 0.008,-0.13229 v -0.0132 c 0.0132,-0.0344 0.0317,-0.0688 0.0529,-0.10054 0.0212,-0.0265 0.0185,-0.0635 -0.008,-0.0847 l -0.045,-0.0397 c -0.037,-0.0318 -0.0582,-0.0794 -0.0635,-0.127 l -0.005,-0.0529 c 0,-0.0159 0,-0.0344 -0.005,-0.0529 l -0.005,-0.0397 c -0.005,-0.045 -0.0317,-0.0794 -0.0688,-0.10584 l -0.0185,-0.005 c -0.0264,-0.0159 -0.0529,-0.0397 -0.0741,-0.0714 -0.0212,-0.0264 -0.0318,-0.0635 -0.0397,-0.10054 l -0.008,-0.045 c 10e-6,-0.0159 -0.0106,-0.0264 -0.0265,-0.0344 l -0.0423,-0.0132 -0.0847,-0.0265 c -0.0265,-0.005 -0.0529,-0.0265 -0.0714,-0.045 h -0.005 c -0.0159,-0.0212 -0.0423,-0.0212 -0.0582,-0.005 l -0.0264,0.0265 c -0.005,0.008 -0.0106,0.0106 -0.0185,0.008 -0.0159,0 -0.0265,-0.0132 -0.0212,-0.0265 0.005,-0.0423 -0.0106,-0.0847 -0.045,-0.11112 l -0.0344,-0.0265 -0.0794,-0.0529 c -0.0212,-0.008 -0.0529,0 -0.0635,0.0265 l -0.0106,0.0159 c 0,0.005 -0.008,0.008 -0.0106,0.0106 -0.0106,0 -0.0265,0 -0.0265,-0.0132 l -0.008,-0.0132 c -0.008,-0.0159 -0.0265,-0.0265 -0.0423,-0.0317 z m -0.3175,0.26458 -0.0132,-0.0132 c -0.0132,-0.0106 -0.0265,-0.008 -0.0397,0.005 -0.0185,0.0317 -0.0344,0.0661 -0.0423,0.10054 v 0.005 c -0.008,0.0344 -0.0397,0.0582 -0.0714,0.0529 h -0.0265 -0.005 c -0.037,0 -0.0661,0.0317 -0.0661,0.0688 0,0.0476 -0.0159,0.0953 -0.045,0.1323 l -0.0159,0.0159 c -0.0265,0.0344 -0.0661,0.0582 -0.10584,0.0714 l -0.0212,0.005 c -0.0265,0.008 -0.0476,0.0265 -0.0529,0.0582 0,0.0265 -0.0159,0.0529 -0.037,0.0741 l -0.0265,0.0212 c -0.0318,0.0344 -0.0794,0.0529 -0.127,0.0582 l -0.13229,0.0132 c -0.0423,0 -0.0794,0.0265 -0.10584,0.0661 -0.0265,0.0397 -0.0661,0.0662 -0.10583,0.0714 l -0.0582,0.005 c -0.0423,0.005 -0.0873,0.005 -0.13229,-0.005 l -0.0265,-0.005 -0.0714,-0.0185 c -0.0264,-0.008 -0.0476,0 -0.0635,0.0185 l -0.0264,0.0344 c -0.0344,0.0397 -0.0847,0.0582 -0.1323,0.0529 l -0.17198,-0.0212 c -0.0265,0 -0.0476,-0.0132 -0.0714,-0.0265 -0.0265,-0.0159 -0.045,-0.0344 -0.0635,-0.0529 l -0.0661,-0.0794 c -0.008,-0.005 -0.0212,-0.008 -0.0344,-0.005 l -0.037,0.0159 -0.14816,0.037 c -0.0265,0.008 -0.0609,0 -0.0873,-0.0159 -0.0264,-0.0212 -0.0582,-0.0265 -0.0899,-0.0265 h -0.0344 c -0.0317,0.008 -0.0529,0.0423 -0.0423,0.0741 l 0.0106,0.0529 c 0.008,0.0265 0.005,0.0582 -0.008,0.0847 -0.0132,0.0265 -0.0106,0.0529 0.008,0.0794 l 0.0159,0.0212 c 0.0212,0.0318 0.0529,0.0582 0.0794,0.0847 0.0265,0.0265 0.0529,0.0529 0.0741,0.0873 l 0.0397,0.0714 c 0.0212,0.037 0.0529,0.0582 0.0953,0.0582 0.0397,0 0.0794,0.0132 0.11113,0.0397 l 0.0794,0.0741 c 0.0212,0.0185 0.0529,0.0212 0.0741,0.005 l 0.0132,-0.005 c 0.0159,0 0.0265,0.0106 0.0265,0.0265 v 0.0132 c 0,0.0344 0.0265,0.0661 0.0609,0.0794 l 0.11906,0.0265 c 0.0423,0.0132 0.0847,0.0265 0.12435,0.0529 h 0.0212 c 0.0212,0 0.0397,-0.0185 0.037,-0.0423 v -0.0926 c 0,-0.0265 0.0106,-0.0529 0.0318,-0.0635 l 0.0132,-0.005 c 0.0132,0.005 0.0265,0.0159 0.0212,0.0265 v 0.045 c 0,0.0344 0.0106,0.0661 0.0344,0.09 0.0265,0.0265 0.0609,0.0317 0.09,0.0212 0.0317,-0.0132 0.0635,-0.0159 0.0979,-0.0132 l 0.0979,0.005 c 0.0476,0.005 0.0926,0 0.1323,-0.0185 0.0476,-0.0159 0.0873,-0.037 0.12435,-0.0662 l 0.0159,-0.0106 0.0794,-0.0714 c 0.0265,-0.0264 0.0609,-0.0397 0.0926,-0.0397 h 0.10584 c 0.0529,-0.005 0.10054,-0.0529 0.10583,-0.10584 l 0.0106,-0.0529 c 0,-0.0344 0.0159,-0.0662 0.0397,-0.0926 0.0265,-0.0265 0.0529,-0.0423 0.0794,-0.0529 l 0.0318,-0.0132 c 0.045,-0.0185 0.0794,-0.0582 0.0952,-0.10584 l 0.0159,-0.0635 c 0.0132,-0.0529 0.0397,-0.10583 0.0794,-0.14023 l 0.005,-0.005 c 0.0318,-0.0265 0.037,-0.0794 0.0159,-0.11641 l -0.008,-0.0185 c -0.0185,-0.0265 -0.0212,-0.0662 -0.008,-0.10055 0.0132,-0.037 0.0265,-0.0688 0.0476,-0.10054 l 0.0265,-0.037 c 0.0106,-0.0212 0.0106,-0.0529 -0.005,-0.0714 -0.0159,-0.0212 -0.0265,-0.0476 -0.0265,-0.0741 l -0.005,-0.037 v -0.09 c 0.005,-0.0265 0,-0.0609 -0.008,-0.0873 l -0.0106,-0.0318 z m -0.37835,-0.20108 v -0.008 c 0,-0.0265 -0.0159,-0.0423 -0.037,-0.0423 h -0.0688 c -0.0264,0.005 -0.0529,0.005 -0.0741,0 h -0.11906 c -0.0609,0 -0.11906,-0.0106 -0.17727,-0.0264 l -0.0635,-0.0159 -0.0529,-0.0159 -0.11906,-0.0397 c -0.0635,-0.0185 -0.11113,-0.0608 -0.14023,-0.11906 l -0.0132,-0.0265 c -0.0185,-0.0397 -0.0582,-0.0609 -0.0979,-0.0529 -0.045,0 -0.0899,0 -0.13229,-0.0212 l -0.0317,-0.0132 c -0.0608,-0.0265 -0.10583,-0.0794 -0.10583,-0.15082 l -0.0106,-0.0714 c -0.008,-0.0371 -0.0317,-0.0714 -0.0635,-0.0847 -0.037,-0.0159 -0.0714,-0.037 -0.10584,-0.0608 l -0.0132,-0.008 c -0.0397,-0.0318 -0.0741,-0.0741 -0.0926,-0.12436 l -0.005,-0.0159 c -0.0132,-0.0423 -0.0159,-0.0873 -0.005,-0.13229 l 0.005,-0.0159 c 0.0106,-0.0344 0.0132,-0.0688 0.0132,-0.10583 0,-0.0317 -0.0132,-0.0635 -0.0371,-0.0873 l -0.037,-0.0344 c -0.0423,-0.0344 -0.0688,-0.0847 -0.0714,-0.14023 -0.005,-0.0582 -0.005,-0.11377 0.005,-0.16933 v -0.008 -0.008 c 0,-0.0317 -0.0265,-0.0529 -0.0529,-0.0529 h -0.008 c -0.0344,0 -0.0635,0.0212 -0.0794,0.0529 -0.0132,0.037 -0.0344,0.0661 -0.0582,0.0952 l -0.0106,0.0132 -0.0529,0.0529 -0.0265,0.0265 c -0.0265,0.0265 -0.0423,0.0661 -0.0476,0.10584 -0.005,0.0397 -0.0159,0.0794 -0.0317,0.11642 l -0.005,0.0132 c -0.0132,0.0318 -0.0344,0.0609 -0.0609,0.0794 -0.0265,0.0212 -0.045,0.0529 -0.045,0.0847 l -0.005,0.12171 c 0,0.0529 -0.008,0.10583 -0.0265,0.15875 l -0.005,0.0212 c -0.0132,0.0344 0,0.0714 0.0317,0.0873 l 0.11112,0.0476 0.0106,0.005 c 0.008,0 0.0106,0.005 0.0132,0.0132 0.008,0.0106 0,0.0265 -0.008,0.0265 l -0.0265,0.0132 c -0.0159,0.005 -0.0265,0.0212 -0.0317,0.0397 l -0.005,0.0265 v 0.005 l -0.0265,0.14817 c -0.005,0.0212 -0.005,0.045 -0.005,0.0688 0,0.0212 0.0132,0.0397 0.0318,0.0476 l 0.0582,0.0265 c 0.0265,0.0159 0.0582,0.0344 0.0794,0.0529 l 0.0265,0.0212 c 0.008,0.0106 0.0212,0.0212 0.0317,0.0265 l 0.0106,0.0106 c 0.0185,0.0159 0.0318,0.037 0.037,0.0609 l 0.0265,0.11906 c 0,0.0318 0.0265,0.0582 0.0529,0.0661 l 0.0423,0.0132 c 0,0 0.008,0 0.0132,0.005 l 0.0529,0.0159 c 0.0423,0.0132 0.0794,0.037 0.11113,0.0688 0.0318,0.0265 0.0635,0.0608 0.09,0.0979 l 0.0106,0.0106 c 0.0212,0.0265 0.0529,0.0397 0.0847,0.0317 0.0317,-0.008 0.0661,-0.0106 0.10055,-0.0106 h 0.0397 c 0.0265,0 0.0609,0.008 0.09,0.0265 0.0265,0.0159 0.0609,0.0265 0.0926,0.0397 h 0.008 c 0.0318,0.0132 0.0661,0.008 0.0926,-0.0106 0.0265,-0.0212 0.0609,-0.0318 0.0952,-0.0318 l 0.12435,0.008 c 0.0265,0 0.0529,-0.005 0.0661,-0.0265 h 0.005 l 0.045,-0.0423 0.0132,-0.0132 c 0.0212,-0.0265 0.0529,-0.037 0.0847,-0.0397 h 0.11907 c 0.0317,0 0.0608,-0.0265 0.0741,-0.0529 0.0132,-0.0265 0.0397,-0.0476 0.0714,-0.0529 l 0.0529,-0.0106 c 0.0212,0 0.0397,-0.0185 0.0476,-0.0423 0.008,-0.0265 0.0212,-0.0476 0.0397,-0.0635 l 0.0423,-0.0423 c 0.0265,-0.0265 0.0397,-0.0529 0.045,-0.0847 z"
       id="path836"
       style="stroke-width:0.264583;fill:#f80a08;fill-opacity:1" />
  </g>
</svg>
